<svg preserveAspectRatio="none" overflow="visible" style="display: block;" width="52" height="52" viewBox="0 0 52 52" fill="none" xmlns="http://www.w3.org/2000/svg">
<g id="Container" filter="url(#filter0_d_0_56)">
<path d="M2 13C2 6.37258 7.37258 1 14 1H38C44.6274 1 50 6.37258 50 13V37C50 43.6274 44.6274 49 38 49H14C7.37258 49 2 43.6274 2 37V13Z" fill="#441BDB" shape-rendering="crispEdges"/>
<path id="Vector" d="M29.2318 18.2142L32.7678 21.7502M32.7678 21.7502L34.2678 20.2502C34.7367 19.7813 35.0002 19.1453 35.0002 18.4822C35.0002 17.819 34.7367 17.1831 34.2678 16.7142C33.7989 16.2453 33.163 15.9818 32.4998 15.9818C31.8367 15.9818 31.2007 16.2453 30.7318 16.7142L29.2318 18.2142L16.9998 30.4462V34.0182H20.4998L32.7678 21.7502Z" stroke="white" stroke-width="2" stroke-linecap="round" stroke-linejoin="round"/>
</g>
<defs>
<filter id="filter0_d_0_56" x="0" y="0" width="52" height="52" filterUnits="userSpaceOnUse" color-interpolation-filters="sRGB">
<feFlood flood-opacity="0" result="BackgroundImageFix"/>
<feColorMatrix in="SourceAlpha" type="matrix" values="0 0 0 0 0 0 0 0 0 0 0 0 0 0 0 0 0 0 127 0" result="hardAlpha"/>
<feOffset dy="1"/>
<feGaussianBlur stdDeviation="1"/>
<feComposite in2="hardAlpha" operator="out"/>
<feColorMatrix type="matrix" values="0 0 0 0 0 0 0 0 0 0 0 0 0 0 0 0 0 0 0.05 0"/>
<feBlend mode="normal" in2="BackgroundImageFix" result="effect1_dropShadow_0_56"/>
<feBlend mode="normal" in="SourceGraphic" in2="effect1_dropShadow_0_56" result="shape"/>
</filter>
</defs>
</svg>
