<svg preserveAspectRatio="none" overflow="visible" style="display: block;" width="50" height="50" viewBox="0 0 50 50" fill="none" xmlns="http://www.w3.org/2000/svg">
<g id="Frame 3466106">
<rect x="0.5" y="0.5" width="49" height="49" rx="24.5" stroke="#E8F2FE"/>
<circle id="Ellipse 4" cx="25" cy="25" r="20" fill="#F6FAFD"/>
<g id="Frame" clip-path="url(#clip0_0_65)">
<path id="Vector" d="M24.75 25.75V31.75" stroke="#0154F5" stroke-width="1.8" stroke-linecap="round" stroke-linejoin="round"/>
<path id="Vector_2" d="M24.75 18.25V20.5" stroke="#0154F5" stroke-width="1.8" stroke-linecap="round" stroke-linejoin="round"/>
<path id="Vector_3" d="M29.379 20.5C29.7768 20.5001 30.1583 20.6582 30.4395 20.9395L31.9845 22.4845C32.0687 22.5686 32.1355 22.6684 32.181 22.7783C32.2266 22.8882 32.25 23.006 32.25 23.125C32.25 23.244 32.2266 23.3618 32.181 23.4717C32.1355 23.5816 32.0687 23.6814 31.9845 23.7655L30.4395 25.3105C30.1583 25.5918 29.7768 25.7499 29.379 25.75H18.75C18.5511 25.75 18.3603 25.671 18.2197 25.5303C18.079 25.3897 18 25.1989 18 25V21.25C18 21.0511 18.079 20.8603 18.2197 20.7197C18.3603 20.579 18.5511 20.5 18.75 20.5H29.379Z" stroke="#0154F5" stroke-width="1.8" stroke-linecap="round" stroke-linejoin="round"/>
</g>
</g>
<defs>
<clipPath id="clip0_0_65">
<rect width="18" height="18" fill="white" transform="translate(15.75 16)"/>
</clipPath>
</defs>
</svg>
