<svg preserveAspectRatio="none" overflow="visible" style="display: block;" width="32" height="32" viewBox="0 0 32 32" fill="none" xmlns="http://www.w3.org/2000/svg">
<g id="france 1" clip-path="url(#clip0_0_103)">
<path id="Vector" d="M16 32C24.8366 32 32 24.8366 32 16C32 7.16344 24.8366 0 16 0C7.16344 0 0 7.16344 0 16C0 24.8366 7.16344 32 16 32Z" fill="#F0F0F0"/>
<path id="Vector_2" d="M32 16C32 9.12056 27.658 3.25588 21.5652 0.995187V31.0049C27.658 28.7441 32 22.8794 32 16Z" fill="#D80027"/>
<path id="Vector_3" d="M0 16C0 22.8794 4.34206 28.7441 10.4348 31.0048V0.995187C4.34206 3.25587 0 9.12056 0 16Z" fill="#0052B4"/>
</g>
<defs>
<clipPath id="clip0_0_103">
<rect width="32" height="32" fill="white"/>
</clipPath>
</defs>
</svg>
