<svg preserveAspectRatio="none" overflow="visible" style="display: block;" width="15" height="15" viewBox="0 0 15 15" fill="none" xmlns="http://www.w3.org/2000/svg">
<g id="Frame" clip-path="url(#clip0_0_45)">
<path id="Vector" d="M2.47843 10.0343C1.94317 8.9739 1.75736 7.77123 1.94763 6.5987C2.1379 5.42617 2.69447 4.34398 3.53759 3.50721C4.38071 2.67044 5.46709 2.12206 6.64102 1.94067C7.81496 1.75927 9.01618 1.95417 10.0725 2.49743C11.1289 3.04069 11.9862 3.90442 12.5215 4.96484C13.0568 6.02526 13.2426 7.22791 13.0524 8.40045C12.8622 9.57299 12.3057 10.6552 11.4626 11.492C10.6195 12.3288 9.53314 12.8772 8.35921 13.0587" stroke="#FDDBBA" stroke-width="2" stroke-linecap="round" stroke-linejoin="round"/>
<path id="Vector_2" d="M13.125 7.49997C13.1249 8.68784 12.7488 9.8452 12.0506 10.8062C11.3523 11.7671 10.3678 12.4824 9.23805 12.8494C8.10831 13.2165 6.89137 13.2164 5.76165 12.8493C4.63193 12.4822 3.64742 11.7669 2.94923 10.8059C2.25103 9.8449 1.87499 8.68752 1.875 7.49965C1.87501 6.31179 2.25107 5.15441 2.94928 4.19341C3.64749 3.2324 4.632 2.5171 5.76173 2.15002C6.89145 1.78294 8.10839 1.78292 9.23813 2.14997" stroke="#FF8E0C" stroke-width="1.5" stroke-linecap="round" stroke-linejoin="round"/>
</g>
<defs>
<clipPath id="clip0_0_45">
<rect width="15" height="15" fill="white"/>
</clipPath>
</defs>
</svg>
