<svg preserveAspectRatio="none" overflow="visible" style="display: block;" width="44" height="44" viewBox="0 0 44 44" fill="none" xmlns="http://www.w3.org/2000/svg">
<g id="Icon">
<path id="Vector" d="M23 21.7778H23.008M26.2 17.1111V15.5556C26.2 15.143 26.0314 14.7473 25.7314 14.4556C25.4313 14.1639 25.0243 14 24.6 14H21.4C20.9757 14 20.5687 14.1639 20.2686 14.4556C19.9686 14.7473 19.8 15.143 19.8 15.5556V17.1111M31 22.5556C28.6262 24.0792 25.8444 24.8915 23 24.8915C20.1556 24.8915 17.3738 24.0792 15 22.5556M16.6 17.1111H29.4C30.2837 17.1111 31 17.8076 31 18.6667V26.4444C31 27.3036 30.2837 28 29.4 28H16.6C15.7163 28 15 27.3036 15 26.4444V18.6667C15 17.8076 15.7163 17.1111 16.6 17.1111Z" stroke="#FA000A" stroke-width="1.3" stroke-linecap="round" stroke-linejoin="round"/>
</g>
</svg>
